<?xml version="1.0"?>
<svg xmlns="http://www.w3.org/2000/svg" xmlns:xlink="http://www.w3.org/1999/xlink" xmlns:svgjs="http://svgjs.com/svgjs" version="1.1" width="512" height="512" x="0" y="0" viewBox="0 0 386 386" style="enable-background:new 0 0 512 512" xml:space="preserve" class=""><g><path xmlns="http://www.w3.org/2000/svg" d="m151.101562 173.101562c17.394532 0 31.5-14.105468 31.5-31.5 0-17.398437-14.105468-31.5-31.5-31.5-17.398437 0-31.5 14.101563-31.5 31.5 0 17.394532 14.101563 31.5 31.5 31.5zm0 0" fill="#ffcd00" data-original="#000000" style="" class=""/><path xmlns="http://www.w3.org/2000/svg" d="m151.101562 223.199219c-15.183593-.082031-29.753906 5.976562-40.402343 16.800781-9.378907 9.769531-15.191407 22.417969-16.5 35.898438h113.699219c-1.242188-13.496094-7.0625-26.164063-16.5-35.898438-10.582032-10.855469-25.136719-16.921875-40.296876-16.800781zm0 0" fill="#ffcd00" data-original="#000000" style="" class=""/><path xmlns="http://www.w3.org/2000/svg" d="m269.300781 0h-236.300781c-18.21875.0195312-32.9804688 14.78125-33 33v24.601562h26.398438c3.867187 0 7 3.132813 7 7 0 3.863282-3.132813 7-7 7h-26.398438v71.597657h26.398438c3.867187 0 7 3.136719 7 7 0 3.867187-3.132813 7-7 7h-26.398438v71.601562h26.398438c3.867187 0 7 3.132813 7 7 0 3.863281-3.132813 7-7 7h-26.398438v71.597657h26.398438c3.867187 0 7 3.136718 7 7 0 3.867187-3.132813 7-7 7h-26.398438v24.601562c.0195312 18.21875 14.78125 32.980469 33 33h236.300781c18.21875-.019531 32.980469-14.78125 33-33v-320c-.019531-18.21875-14.78125-32.9804688-33-33zm-118.199219 96c25.128907 0 45.5 20.371094 45.5 45.5s-20.371093 45.5-45.5 45.5c-25.128906 0-45.5-20.371094-45.5-45.5.019532-25.121094 20.378907-45.480469 45.5-45.5zm64.199219 194h-128.402343c-1.859376.011719-3.644532-.722656-4.960938-2.039062-1.316406-1.3125-2.050781-3.101563-2.039062-4.960938 0-20.300781 7.402343-39 20.800781-52.699219 13.328125-13.441406 31.472656-21 50.402343-21 18.925782 0 37.070313 7.558594 50.398438 21 13.398438 13.699219 20.800781 32.398438 20.800781 52.699219.011719 1.859375-.722656 3.648438-2.039062 4.960938-1.316407 1.316406-3.101563 2.050781-4.960938 2.039062zm0 0" fill="#ffcd00" data-original="#000000" style="" class=""/></g></svg>
